<?xml version="1.0" encoding="UTF-8"?>
<svg width="37px" height="42px" viewBox="0 0 37 42" version="1.1" xmlns="http://www.w3.org/2000/svg" xmlns:xlink="http://www.w3.org/1999/xlink">
    <title>bubble</title>
    <g id="首页" stroke="none" stroke-width="1" fill="none" fill-rule="evenodd">
        <g id="领取信息未填写" transform="translate(-323.000000, -100.000000)" fill-rule="nonzero">
            <g id="免费领样" transform="translate(16.000000, 100.000000)">
                <g id="bubble" transform="translate(307.000000, 0.000000)">
                    <path d="M18.1621622,0 C8.13169533,0 0,7.95783237 0,17.7738388 C0,29.4625615 11.8087076,35.0580891 13.2880983,36.3604268 C14.79886,37.6902331 16.0470958,39.056006 16.550683,40.7461365 C16.7950467,41.5669647 17.4819066,41.9822262 18.1621622,42 C18.8440688,41.9806104 19.5292776,41.5653489 19.7736413,40.7461365 C20.2772285,39.056006 21.5254644,37.6918489 23.036226,36.3604268 C24.5156167,35.0580891 36.3243243,29.4625615 36.3243243,17.7738388 C36.3243243,7.95783237 28.192629,0 18.1621622,0 Z" id="address" fill="#FF0057"></path>
                    <path d="M22.762,11.238 L22.168,12.75 L26.164,12.75 L25.912,14.568 L25.444,14.568 L25.012,17.736 L22.96,20.22 L25.03,24.126 L21.736,24.126 L20.98,22.632 L19.738,24.144 L16.624,24.144 L19.792,20.292 L17.884,16.494 L21.016,16.494 L21.754,17.898 L22.654,16.8 L22.96,14.568 L21.466,14.568 L20.944,15.918 L17.848,15.918 L19.504,11.688 L19.018,11.238 L22.762,11.238 Z M13.672,20.976 L10.378,21.588 L11.674,12.48 L11.26,11.886 L14.14,11.886 L13.186,18.69 L14.014,18.546 L15.058,11.184 L17.884,11.184 L16.048,24.144 L13.222,24.144 L13.672,20.976 Z" id="形状" fill="#FFFFFF"></path>
                </g>
            </g>
        </g>
    </g>
</svg>