<?xml version="1.0" encoding="UTF-8"?>
<svg width="24px" height="24px" viewBox="0 0 24 24" version="1.1" xmlns="http://www.w3.org/2000/svg" xmlns:xlink="http://www.w3.org/1999/xlink">
    <title>complete</title>
    <g id="首页" stroke="none" stroke-width="1" fill="none" fill-rule="evenodd">
        <g id="商品详情页" transform="translate(-323.000000, -761.000000)">
            <g id="领样流程" transform="translate(16.000000, 715.000000)">
                <g id="complete" transform="translate(307.000000, 46.000000)">
                    <path d="M8,0 L16,0 C20.418278,-8.11624501e-16 24,3.581722 24,8 L24,16 C24,20.418278 20.418278,24 16,24 L8,24 C3.581722,24 5.41083001e-16,20.418278 0,16 L0,8 C-5.41083001e-16,3.581722 3.581722,8.11624501e-16 8,0 Z" id="矩形" fill="#EC6593"></path>
                    <path d="M14,6 C16.209139,6 18,7.790861 18,10 L18,14 C18,16.209139 16.209139,18 14,18 L10,18 C7.790861,18 6,16.209139 6,14 L6,10 C6,7.790861 7.790861,6 10,6 L14,6 Z M13.9748737,9.90380592 L11.5,12.3786797 L10.4393398,11.3180195 L9.37867966,12.3786797 L11.5,14.5 L15.0355339,10.9644661 L13.9748737,9.90380592 Z" id="形状结合" fill="#FFFFFF"></path>
                </g>
            </g>
        </g>
    </g>
</svg>