<?xml version="1.0" encoding="UTF-8"?>
<svg width="52px" height="16px" viewBox="0 0 52 16" version="1.1" xmlns="http://www.w3.org/2000/svg" xmlns:xlink="http://www.w3.org/1999/xlink">
    <title>详情页</title>
    <g id="首页" stroke="none" stroke-width="1" fill="none" fill-rule="evenodd">
        <g id="商品详情页展开" transform="translate(-16.000000, -1291.000000)">
            <g id="详情页" transform="translate(16.000000, 1291.000000)">
                <path d="M5.65961872,12.5162738 L5.65961872,9.57126824 L9.24644714,9.57126824 L9.24644714,8.26038159 L6.12824957,8.26038159 L6.12824957,5.49494949 L9.24644714,5.49494949 L9.24644714,4.29180696 L5.74974003,4.29180696 L5.74974003,1.4365881 L7.01143847,1.4365881 L7.01143847,0 L10.0755633,0 L10.0755633,1.4365881 L11.8419411,1.4365881 L11.8419411,0 L14.9060659,0 L14.9060659,1.4365881 L16.14974,1.4365881 L16.14974,4.29180696 L12.6710572,4.29180696 L12.6710572,5.49494949 L15.7712305,5.49494949 L15.7712305,8.26038159 L12.6710572,8.26038159 L12.6710572,9.57126824 L16.3299827,9.57126824 L16.3299827,12.5162738 L12.6710572,12.5162738 L12.6710572,15.9102132 L9.24644714,15.9102132 L9.24644714,12.5162738 L5.65961872,12.5162738 Z M5.01074523,15.4433221 C4.01340266,15.4433221 3.25037551,15.3236064 2.72166378,15.0841751 C2.19295205,14.8447437 1.80843443,14.5095398 1.56811092,14.0785634 C1.32778741,13.647587 1.19260543,13.1328096 1.16256499,12.5342312 C1.13252455,11.9356528 1.11750433,11.2712308 1.11750433,10.5409652 L1.11750433,7.21885522 L0,7.21885522 L0,4.25589226 L4.45199307,4.25589226 L4.45199307,10.3613917 C4.45199307,10.7444819 4.4610052,11.0497568 4.47902946,11.2772166 C4.49705373,11.5046764 4.52709417,11.681257 4.56915078,11.8069585 C4.61120739,11.9326599 4.67429232,12.0164609 4.75840555,12.0583614 C4.84251878,12.1002619 4.95667244,12.1212121 5.10086655,12.1212121 L5.38925477,12.1212121 L5.38925477,15.4433221 L5.01074523,15.4433221 Z" id="形状" fill="#000000" fill-rule="nonzero"></path>
                <polygon id="路径" fill="#FF0057" points="0.829116118 3.05274972 0.829116118 0.107744108 4.36187175 0.107744108 4.36187175 3.05274972"></polygon>
                <path d="M19.8807626,0 L23.197227,0 L23.197227,2.47811448 C23.3774697,2.78937523 23.5787406,3.05574261 23.8010399,3.27721661 C24.0233391,3.49869061 24.2606586,3.60942761 24.5129983,3.60942761 L24.5129983,5.18967452 L27.3968804,5.18967452 L27.3968804,4.81257015 L24.8915078,4.81257015 L24.8915078,2.96296296 L27.3968804,2.96296296 L27.3968804,2.58585859 L24.4228769,2.58585859 L24.4228769,0.55667789 L27.3968804,0.55667789 L27.3968804,0.0179573513 L31.1098787,0.0179573513 L31.1098787,0.55667789 L34.0658579,0.55667789 L34.0658579,2.58585859 L31.1098787,2.58585859 L31.1098787,2.96296296 L33.7053726,2.96296296 L33.7053726,4.81257015 L31.1098787,4.81257015 L31.1098787,5.18967452 L34.3542461,5.18967452 L34.3542461,7.39842873 L24.152513,7.39842873 L24.152513,6.84175084 C23.7800116,6.7100636 23.4615829,6.53049009 23.197227,6.3030303 L23.197227,15.9102132 L19.8807626,15.9102132 L19.8807626,7.93714927 C19.772617,8.02095024 19.6434431,8.10774411 19.4932409,8.19753086 C19.3430387,8.28731762 19.1868284,8.3681257 19.0246101,8.43995511 C18.8623917,8.51178451 18.6971693,8.56864946 18.5289428,8.61054994 C18.3607163,8.65245043 18.198498,8.67340067 18.0422877,8.67340067 L18.0422877,4.68686869 C18.4388215,4.68686869 18.7932987,4.52225963 19.1057192,4.19304153 C19.4181398,3.86382342 19.6764876,3.47774037 19.8807626,3.03479237 L19.8807626,0 Z M24.5129983,7.86531987 L33.9757366,7.86531987 L33.9757366,12.9472503 C33.9757366,13.4739993 33.9517042,13.9289188 33.9036395,14.312009 C33.8555748,14.6950991 33.7384171,15.0123457 33.5521664,15.2637486 C33.3659157,15.5151515 33.0895436,15.7007108 32.7230503,15.8204265 C32.3565569,15.9401422 31.8488735,16 31.2,16 L29.5237435,16 L29.5237435,13.7732884 L30.2807626,13.7732884 C30.5931831,13.7732884 30.8034662,13.731388 30.9116118,13.647587 C31.0197574,13.563786 31.0858463,13.4201272 31.1098787,13.2166105 L27.3067591,13.2166105 L27.3067591,15.9102132 L24.5129983,15.9102132 L24.5129983,7.86531987 Z M27.3067591,10.5409652 L31.1098787,10.5409652 L31.1098787,10.0740741 L27.3067591,10.0740741 L27.3067591,10.5409652 Z M27.3067591,12.1212121 L31.1098787,12.1212121 L31.1098787,11.654321 L27.3067591,11.654321 L27.3067591,12.1212121 Z" id="形状" fill="#000000" fill-rule="nonzero"></path>
                <path d="M37.3462738,12.2109989 L37.3462738,3.4298541 L42.7355286,3.4298541 L42.7355286,2.78338945 L36.607279,2.78338945 L36.607279,0.107744108 L51.8197574,0.107744108 L51.8197574,2.78338945 L45.6915078,2.78338945 L45.6915078,3.4298541 L51.0807626,3.4298541 L51.0807626,12.2109989 L47.9265165,12.2109989 L47.9265165,6.01571268 L40.5005199,6.01571268 L40.5005199,12.2109989 L37.3462738,12.2109989 Z M52,15.8024691 C51.0026574,15.8024691 50.1164645,15.75159 49.3414211,15.6498316 C48.5663778,15.5480733 47.8754477,15.4074074 47.2686308,15.2278339 C46.661814,15.0482604 46.1361063,14.8327722 45.6915078,14.5813692 C45.2469093,14.3299663 44.8503755,14.0546203 44.5019064,13.7553311 C44.9705373,13.3004115 45.3250144,12.8305275 45.565338,12.345679 C45.8056615,11.8608305 45.9738879,11.3071455 46.0700173,10.684624 C46.2021953,11.0677142 46.4064702,11.3939394 46.6828423,11.6632997 C46.9592143,11.9326599 47.3317158,12.1481481 47.8003466,12.3097643 C48.2689775,12.4713805 48.8487579,12.5881033 49.539688,12.6599327 C50.2306181,12.7317621 51.0507221,12.7676768 52,12.7676768 L52,15.8024691 Z" id="形状" fill="#000000" fill-rule="nonzero"></path>
                <path d="M36.4270364,12.8574635 C37.5805893,12.8574635 38.5478914,12.7766554 39.3289428,12.6150393 C40.1099942,12.4534231 40.7378394,12.2169847 41.2124783,11.9057239 C41.6871173,11.5944632 42.0265742,11.2173588 42.2308492,10.7744108 C42.4351242,10.3314628 42.5372617,9.82267116 42.5372617,9.24803591 L42.5372617,6.57239057 L45.8897747,6.57239057 L45.8897747,9.24803591 C45.8897747,9.72689862 45.838706,10.2237187 45.7365685,10.7384961 C45.634431,11.2532735 45.4511843,11.7530864 45.1868284,12.2379349 C44.9224726,12.7227834 44.5649913,13.1806958 44.1143847,13.6116723 C43.6637782,14.0426487 43.0870017,14.4197531 42.3840555,14.7429854 C41.6811092,15.0662177 40.8399769,15.3236064 39.8606586,15.5151515 C38.8813403,15.7066966 37.7367995,15.8024691 36.4270364,15.8024691 L36.4270364,12.8574635 Z" id="路径" fill="#FF0057"></path>
            </g>
        </g>
    </g>
</svg>