<?xml version="1.0" encoding="UTF-8"?>
<svg width="70px" height="16px" viewBox="0 0 70 16" version="1.1" xmlns="http://www.w3.org/2000/svg" xmlns:xlink="http://www.w3.org/1999/xlink">
    <title>申请记录</title>
    <g id="首页" stroke="none" stroke-width="1" fill="none" fill-rule="evenodd">
        <g id="完成申样" transform="translate(-16.000000, -333.000000)">
            <g id="申请记录" transform="translate(16.000000, 333.000000)">
                <g id="申样记录" fill="#000000" fill-rule="nonzero">
                    <path d="M0,12.3702032 L0,1.67945824 L5.68693402,1.67945824 L5.68693402,0.0902934537 L9.23673997,0.0902934537 L9.23673997,1.67945824 L14.923674,1.67945824 L14.923674,12.3702032 L9.23673997,12.3702032 L9.23673997,16 L5.68693402,16 L5.68693402,12.3702032 L0,12.3702032 Z M3.3686934,5.86907449 L5.68693402,5.86907449 L5.68693402,4.27990971 L3.3686934,4.27990971 L3.3686934,5.86907449 Z M9.23673997,5.86907449 L11.5549806,5.86907449 L11.5549806,4.27990971 L9.23673997,4.27990971 L9.23673997,5.86907449 Z M3.3686934,9.76975169 L5.68693402,9.76975169 L5.68693402,8.18058691 L3.3686934,8.18058691 L3.3686934,9.76975169 Z M9.23673997,9.76975169 L11.5549806,9.76975169 L11.5549806,8.18058691 L9.23673997,8.18058691 L9.23673997,9.76975169 Z" id="形状"></path>
                    <polygon id="形状" points="25.3557568 0 28.2354463 0 28.2354463 1.44469526 29.8292367 1.44469526 29.8292367 0 32.7089263 0 32.7089263 1.44469526 33.5963777 1.44469526 33.5963777 4.31602709 30.7529107 4.31602709 30.7529107 5.52595937 33.3065977 5.52595937 33.3065977 8.30699774 30.7529107 8.30699774 30.7529107 9.62528217 33.7774903 9.62528217 33.7774903 12.5869074 30.7529107 12.5869074 30.7529107 16 27.3117723 16 27.3117723 12.5869074 24.2690815 12.5869074 24.2690815 9.62528217 27.3117723 9.62528217 27.3117723 8.30699774 24.7399741 8.30699774 24.7399741 5.52595937 27.3117723 5.52595937 27.3117723 4.31602709 24.450194 4.31602709 24.450194 1.44469526 25.3557568 1.44469526"></polygon>
                    <path d="M36.313066,3.06997743 L36.313066,0.108352144 L39.8628719,0.108352144 L39.8628719,3.06997743 L36.313066,3.06997743 Z M44.7166882,15.8916479 C44.3061665,15.8916479 43.9228116,15.8374718 43.5666235,15.7291196 C43.2104355,15.6207675 42.9025442,15.4281415 42.6429495,15.1512415 C42.3833549,14.8743416 42.1811125,14.5041384 42.0362225,14.0406321 C41.8913325,13.5771257 41.8188875,12.9902182 41.8188875,12.2799097 L41.8188875,5.86907449 L48.1578266,5.86907449 L48.1578266,3.44920993 L41.2755498,3.44920993 L41.2755498,0.469525959 L51.3272962,0.469525959 L51.3272962,8.65011287 L44.9883571,8.65011287 L44.9883571,11.1602709 C44.9883571,11.3769752 44.9943941,11.5816403 45.0064683,11.7742664 C45.0185425,11.9668924 45.0517464,12.1324304 45.1060802,12.2708804 C45.160414,12.4093303 45.2419146,12.5206922 45.3505821,12.6049661 C45.4592497,12.68924 45.6101768,12.731377 45.8033635,12.731377 L51.8887451,12.731377 L51.8887451,15.8916479 L44.7166882,15.8916479 Z M40.5148771,15.530474 C39.512721,15.530474 38.7460112,15.4100828 38.2147477,15.1693002 C37.6834843,14.9285177 37.2971108,14.5914221 37.0556274,14.1580135 C36.814144,13.724605 36.6783096,13.2069225 36.6481242,12.6049661 C36.6179388,12.0030098 36.6028461,11.3348382 36.6028461,10.6004515 L36.6028461,7.25959368 L35.4799483,7.25959368 L35.4799483,4.27990971 L39.9534282,4.27990971 L39.9534282,10.4198646 C39.9534282,10.9014296 39.9624838,11.2836719 39.9805951,11.5665914 C39.9987063,11.8495109 40.0288918,12.0632054 40.0711514,12.2076749 C40.113411,12.3521445 40.1768003,12.4454477 40.2613195,12.4875847 C40.3458387,12.5297216 40.4605433,12.5507901 40.6054334,12.5507901 L41.076326,12.5507901 L41.076326,15.530474 L40.5148771,15.530474 Z" id="形状"></path>
                    <path d="M58.626132,15.9097065 L58.626132,13.1106095 L59.0064683,13.1106095 C59.2841742,13.1106095 59.4984907,13.0835214 59.6494179,13.0293454 C59.800345,12.9751693 59.9090125,12.896915 59.9754204,12.7945824 C60.0418284,12.6922498 60.0810694,12.565839 60.0931436,12.4153499 C60.1052178,12.2648608 60.1112549,12.0933032 60.1112549,11.9006772 L60.1112549,7.90970655 L53.5912031,7.90970655 L53.5912031,5.43566591 L65.1461837,5.43566591 L65.1461837,4.8758465 L54.8952135,4.8758465 L54.8952135,2.9255079 L65.1461837,2.9255079 L65.1461837,2.36568849 L54.3337646,2.36568849 L54.3337646,0.0361173815 L68.3156533,0.0361173815 L68.3156533,5.43566591 L70,5.43566591 L70,7.90970655 L63.6610608,7.90970655 L63.6610608,12.4604966 C63.6610608,13.7005267 63.3712807,14.5854026 62.7917206,15.1151242 C62.2121604,15.6448457 61.4152652,15.9097065 60.4010349,15.9097065 L58.626132,15.9097065 Z M64.5847348,10.6907449 L64.5847348,8.41534989 L68.8771022,8.41534989 L68.8771022,10.6907449 L64.5847348,10.6907449 Z M69.3479948,14.5011287 C68.6597671,14.5011287 68.0107805,14.4469526 67.4010349,14.3386005 C66.7912893,14.2302483 66.2570073,14.0797592 65.7981889,13.8871332 C65.3393704,13.6945071 64.9771453,13.4747931 64.7115136,13.227991 C64.4458818,12.9811889 64.313066,12.7253574 64.313066,12.4604966 L64.313066,10.7810384 C64.313066,10.8773514 64.4639931,10.9706546 64.7658473,11.0609481 C65.0677016,11.1512415 65.4601121,11.2325056 65.9430789,11.3047404 C66.4260457,11.3769752 66.9663648,11.434161 67.5640362,11.476298 C68.1617076,11.5184349 68.7563605,11.5395034 69.3479948,11.5395034 L69.3479948,14.5011287 Z" id="形状"></path>
                </g>
                <polygon id="路径" fill="#FF0057" points="58.626132 10.6907449 54.5329884 10.6907449 54.5329884 8.41534989 58.626132 8.41534989"></polygon>
                <path d="M54.0620957,11.6297968 C54.5450625,11.6297968 55.0672704,11.6057186 55.6287193,11.5575621 C56.1901682,11.5094056 56.712376,11.4462002 57.1953428,11.3679458 C57.6783096,11.2896915 58.0827943,11.2084274 58.4087969,11.1241535 C58.7347995,11.0398796 58.8978008,10.9616253 58.8978008,10.8893905 L58.8978008,12.2799097 C58.8978008,12.5808879 58.771022,12.8668172 58.5174644,13.1376975 C58.2639069,13.4085779 57.919793,13.6463506 57.4851229,13.8510158 C57.0504528,14.055681 56.5403191,14.2151994 55.9547219,14.3295711 C55.3691246,14.4439428 54.7382492,14.5011287 54.0620957,14.5011287 L54.0620957,11.6297968 Z" id="路径" fill="#FF0057"></path>
                <path d="M19.0530401,0 L22.313066,0 L22.313066,2.05869074 L23.9974127,2.05869074 L23.9974127,5.21896163 L22.313066,5.21896163 L22.313066,5.8510158 C22.3613627,6.10383747 22.424752,6.35364936 22.5032342,6.60045147 C22.5817163,6.84725357 22.6783096,7.06997743 22.7930142,7.26862302 C22.9077188,7.46726862 23.0495903,7.62678706 23.2186287,7.74717833 C23.3876671,7.8675696 23.5808538,7.92776524 23.7981889,7.92776524 L23.7981889,12.2076749 C23.3876671,12.2076749 23.0616645,12.1234011 22.8201811,11.9548533 C22.5786977,11.7863055 22.4096593,11.5696012 22.313066,11.3047404 L22.313066,16 L19.0530401,16 L19.0530401,11.5575621 C18.9322984,11.8224229 18.7360931,12.0391272 18.4644243,12.2076749 C18.1927555,12.3762227 17.8275119,12.4604966 17.3686934,12.4604966 L17.3686934,8 C17.5981026,8 17.8033635,7.93679458 17.9844761,7.81038375 C18.1655886,7.68397291 18.3255714,7.5214447 18.4644243,7.3227991 C18.6032773,7.1241535 18.7210004,6.90142965 18.8175938,6.65462754 C18.9141871,6.40782543 18.9926693,6.15801354 19.0530401,5.90519187 L19.0530401,5.21896163 L17.3686934,5.21896163 L17.3686934,2.05869074 L19.0530401,2.05869074 L19.0530401,0 Z" id="路径" fill="#FF0057"></path>
            </g>
        </g>
    </g>
</svg>