<?xml version="1.0" encoding="UTF-8"?>
<svg width="24px" height="24px" viewBox="0 0 24 24" version="1.1" xmlns="http://www.w3.org/2000/svg" xmlns:xlink="http://www.w3.org/1999/xlink">
    <title>liveBroadcast</title>
    <g id="首页" stroke="none" stroke-width="1" fill="none" fill-rule="evenodd">
        <g id="商品详情页" transform="translate(-264.000000, -761.000000)">
            <g id="领样流程" transform="translate(16.000000, 715.000000)">
                <g id="liveBroadcast" transform="translate(248.000000, 46.000000)">
                    <path d="M8,0 L16,0 C20.418278,-8.11624501e-16 24,3.581722 24,8 L24,16 C24,20.418278 20.418278,24 16,24 L8,24 C3.581722,24 5.41083001e-16,20.418278 0,16 L0,8 C-5.41083001e-16,3.581722 3.581722,8.11624501e-16 8,0 Z" id="矩形" fill="#EC6593"></path>
                    <path d="M14,6 C16.209139,6 18,7.790861 18,10 L18,14 C18,16.209139 16.209139,18 14,18 L10,18 C7.790861,18 6,16.209139 6,14 L6,10 C6,7.790861 7.790861,6 10,6 L14,6 Z M11.3,10.0342585 C11.0238576,10.0342585 10.8,10.2581162 10.8,10.5342585 L10.8,13.4657415 C10.8,13.5644539 10.829219,13.6609578 10.8839749,13.7430916 C11.0371511,13.9728559 11.3475858,14.0349428 11.5773501,13.8817666 L13.7759623,12.4160251 C13.8308884,12.3794077 13.8780199,12.3322762 13.9146373,12.2773501 C14.0678136,12.0475858 14.0057266,11.7371511 13.7759623,11.5839749 L11.5773501,10.1182334 C11.4952163,10.0634776 11.3987125,10.0342585 11.3,10.0342585 Z" id="形状结合" fill="#FFFFFF"></path>
                </g>
            </g>
        </g>
    </g>
</svg>