<?xml version="1.0" encoding="UTF-8"?>
<svg width="24px" height="24px" viewBox="0 0 24 24" version="1.1" xmlns="http://www.w3.org/2000/svg" xmlns:xlink="http://www.w3.org/1999/xlink">
    <title>merchantShipping</title>
    <g id="首页" stroke="none" stroke-width="1" fill="none" fill-rule="evenodd">
        <g id="商品详情页" transform="translate(-146.000000, -761.000000)">
            <g id="领样流程" transform="translate(16.000000, 715.000000)">
                <g id="merchantShipping" transform="translate(130.000000, 46.000000)">
                    <path d="M8,0 L16,0 C20.418278,-8.11624501e-16 24,3.581722 24,8 L24,16 C24,20.418278 20.418278,24 16,24 L8,24 C3.581722,24 5.41083001e-16,20.418278 0,16 L0,8 C-5.41083001e-16,3.581722 3.581722,8.11624501e-16 8,0 Z" id="矩形" fill="#EC6593"></path>
                    <path d="M17,18.75 C17,18.8880712 16.8880712,19 16.75,19 L16.25,19 C16.1119288,19 16,18.8880712 16,18.75 C16,18.8880712 15.8880712,19 15.75,19 L15.25,19 C15.1119288,19 15,18.8880712 15,18.75 L15,17.5 L9,17.5 L9,18.75 C9,18.8880712 8.88807119,19 8.75,19 L8.25,19 C8.11192881,19 8,18.8880712 8,18.75 C8,18.8880712 7.88807119,19 7.75,19 L7.25,19 C7.11192881,19 7,18.8880712 7,18.75 L7,17.5 C6.44771525,17.5 6,17.0522847 6,16.5 L6,15.5 C6,15.1298738 6.20108306,14.806713 6.49996376,14.6338032 L6.5,12 L5.5,12 C5.22385763,12 5,11.7761424 5,11.5 L5,8.5 C5,8.22385763 5.22385763,8 5.5,8 L6.5,8 L6.5,7.88940878 C6.5,7.23568861 6.58402167,6.58467934 6.75,5.95238095 C6.89730079,5.3912351 7.40448984,5 7.98464688,5 L16.0153531,5 C16.5955102,5 17.1026992,5.3912351 17.25,5.95238095 C17.4159783,6.58467934 17.5,7.23568861 17.5,7.88940878 L17.5,8 L18.5,8 C18.7761424,8 19,8.22385763 19,8.5 L19,11.5 C19,11.7761424 18.7761424,12 18.5,12 L17.5,12 L17.5005388,14.6340941 C17.7991423,14.8070753 18,15.1300813 18,15.5 L18,16.5 C18,17.0522847 17.5522847,17.5 17,17.5 L17,18.75 Z M7.50746437,13.2595602 C7.50250684,13.2793903 7.5,13.2997536 7.5,13.3201941 L7.5,14.25 C7.5,14.3880712 7.61192881,14.5 7.75,14.5 L9.25,14.5 C9.38807119,14.5 9.5,14.3880712 9.5,14.25 L9.5,13.6951941 C9.5,13.5804772 9.42192566,13.4804814 9.31063391,13.4526585 L7.81063391,13.0776585 C7.67668518,13.0441713 7.54095156,13.1256115 7.50746437,13.2595602 Z M16.25,13.0701941 C16.2295595,13.0701941 16.2091962,13.0727009 16.1893661,13.0776585 L14.6893661,13.4526585 C14.5780743,13.4804814 14.5,13.5804772 14.5,13.6951941 L14.5,14.25 C14.5,14.3880712 14.6119288,14.5 14.75,14.5 L16.25,14.5 C16.3880712,14.5 16.5,14.3880712 16.5,14.25 L16.5,13.3201941 C16.5,13.1821229 16.3880712,13.0701941 16.25,13.0701941 Z M14,13.75 L10,13.75 L10,14.5 L14,14.5 L14,13.75 Z M16,8.5 L8,8.5 C7.72385763,8.5 7.5,8.72385763 7.5,9 L7.5,11.097168 C7.50069209,11.3349729 7.66877918,11.5393887 7.90209961,11.5853633 C9.26806641,11.8617878 10.6340332,12 12,12 C13.3659668,12 14.7319336,11.8617878 16.0979004,11.5853633 C16.3312208,11.5393887 16.4993079,11.3349729 16.5,11.097168 L16.5,9 C16.5,8.72385763 16.2761424,8.5 16,8.5 Z M6.5,8.75 L6,8.75 L6,11.25 L6.5,11.25 L6.5,8.75 Z M18,8.75 L17.5,8.75 L17.5,11.25 L18,11.25 L18,8.75 Z" id="形状" fill="#FFFFFF"></path>
                </g>
            </g>
        </g>
    </g>
</svg>