<?xml version="1.0" encoding="UTF-8"?>
<svg width="86px" height="20px" viewBox="0 0 86 20" version="1.1" xmlns="http://www.w3.org/2000/svg" xmlns:xlink="http://www.w3.org/1999/xlink">
    <title>免费领样</title>
    <g id="首页" stroke="none" stroke-width="1" fill="none" fill-rule="evenodd">
        <g id="领取信息未填写" transform="translate(-16.000000, -100.000000)">
            <g id="免费领样" transform="translate(16.000000, 100.000000)">
                <g transform="translate(0.000000, 0.000000)" id="形状结合">
                    <path d="M34.391193,13.4311512 C34.391193,14.4243792 34.2407407,15.3197893 33.9398361,16.1173815 C33.6389316,16.9149737 33.0701485,17.5921746 32.2334869,18.1489842 C31.3968254,18.7057938 30.2335723,19.1346877 28.7437276,19.4356659 C27.2538829,19.7366441 25.3200205,19.8871332 22.9421403,19.8871332 L22.9421403,16.2528217 C24.2778631,16.2528217 25.3787336,16.2151994 26.2447517,16.1399549 C27.1107698,16.0647103 27.8079877,15.9593679 28.3364055,15.8239278 C28.8648233,15.6884876 29.2537976,15.530474 29.5033282,15.3498871 C29.7528588,15.1693002 29.921659,14.9736644 30.0097286,14.7629797 C30.0977983,14.552295 30.1344939,14.3340858 30.1198157,14.1083521 C30.1051374,13.8826185 30.0977983,13.6568849 30.0977983,13.4311512 L34.391193,13.4311512 Z M34.6774194,15.3498871 C34.8242021,15.4702784 35.0186892,15.5831452 35.2608807,15.6884876 C35.5030722,15.7938299 35.870029,15.8878856 36.3617512,15.9706546 C36.8534733,16.0534236 37.510326,16.1211437 38.3323093,16.1738149 C39.1542925,16.2264861 40.2184673,16.2528217 41.5248336,16.2528217 L41.5248336,19.8871332 C40.2331456,19.8871332 39.1212664,19.8570354 38.1891961,19.7968397 C37.2571258,19.7366441 36.4461512,19.6538751 35.7562724,19.5485327 C35.0663936,19.4431904 34.4755931,19.3190369 33.983871,19.1760722 C33.4921488,19.0331076 33.0481311,18.8713318 32.6518177,18.6907449 C32.9013484,18.5703536 33.1362007,18.3822423 33.3563748,18.1264108 C33.5765489,17.8705794 33.7747056,17.5884123 33.9508449,17.2799097 C34.1269841,16.9714071 34.281106,16.6478555 34.4132104,16.3092551 C34.5453149,15.9706546 34.6333845,15.6508653 34.6774194,15.3498871 Z M68.0998464,0 L72.06298,0 L72.06298,2.57336343 L74.1105991,2.57336343 L74.1105991,6.52370203 L72.06298,6.52370203 L72.06298,7.31376975 C72.1216931,7.62979684 72.1987541,7.9420617 72.2941628,8.25056433 C72.3895716,8.55906697 72.5069978,8.83747178 72.6464414,9.08577878 C72.785885,9.33408578 72.9583547,9.53348382 73.1638505,9.68397291 C73.3693463,9.834462 73.6041987,9.90970655 73.8684076,9.90970655 L73.8684076,15.2595937 C73.3693463,15.2595937 72.9730329,15.1542513 72.6794675,14.9435666 C72.385902,14.7328819 72.1804062,14.4620015 72.06298,14.1309255 L72.06298,20 L68.0998464,20 L68.0998464,14.4469526 C67.9530637,14.7780286 67.7145417,15.048909 67.3842806,15.2595937 C67.0540195,15.4702784 66.6100017,15.5756208 66.0522273,15.5756208 L66.0522273,10 C66.3311145,10 66.5806452,9.92099323 66.8008193,9.76297968 C67.0209933,9.60496614 67.2154805,9.40180587 67.3842806,9.15349887 C67.5530807,8.90519187 67.6961939,8.62678706 67.8136201,8.31828442 C67.9310463,8.00978179 68.026455,7.69751693 68.0998464,7.38148984 L68.0998464,6.52370203 L66.0522273,6.52370203 L66.0522273,2.57336343 L68.0998464,2.57336343 L68.0998464,0 Z" fill="#FF0057"></path>
                    <path d="M0.352278546,2.57336343 C1.291688,2.57336343 2.03661034,2.49811889 2.58704557,2.3476298 C3.1374808,2.19714071 3.55581157,2.00150489 3.84203789,1.76072235 C4.12826421,1.5199398 4.31541219,1.24529722 4.40348182,0.936794582 C4.49155146,0.628291949 4.53558628,0.316027088 4.53558628,0 L8.60880696,0 C8.60880696,0.0752445448 8.60880696,0.154251317 8.60880696,0.237020316 C8.60880696,0.319789315 8.60146783,0.398796087 8.58678955,0.474040632 L16.6671787,0.474040632 L16.6671787,2.46049661 C16.6671787,3.33333333 16.3662741,4.14597442 15.7644649,4.89841986 L18.8028674,4.89841986 L18.8028674,13.2505643 L14.1571941,13.2505643 L14.1571941,14.4243792 C14.1571941,14.8156509 14.2452637,15.1241535 14.421403,15.3498871 C14.5975422,15.5756208 14.8764294,15.6884876 15.2580645,15.6884876 L19.9477727,15.6884876 L19.9477727,19.8871332 L14.5094726,19.8871332 C13.6874893,19.8871332 13.0306366,19.7780286 12.5389145,19.5598194 C12.0471924,19.3416102 11.6728964,19.0218209 11.4160266,18.6004515 C11.1591569,18.179082 10.9903567,17.6711813 10.9096262,17.0767494 C10.8288957,16.4823175 10.7811913,15.8013544 10.7665131,15.03386 C10.3995562,15.6207675 9.91150367,16.2039127 9.30235535,16.7832957 C8.69320703,17.3626787 7.94828469,17.8818661 7.06758833,18.3408578 C6.18689196,18.7998495 5.16308244,19.17231 3.99615975,19.4582393 C2.82923707,19.7441685 1.49718382,19.8871332 0,19.8871332 L0,15.6884876 C1.17426182,15.6884876 2.19073221,15.6207675 3.04941116,15.4853273 C3.90809012,15.3498871 4.63099505,15.1693002 5.21812596,14.9435666 C5.80525687,14.717833 6.27129203,14.4582393 6.61623144,14.1647856 C6.96117085,13.8713318 7.21437105,13.5665914 7.37583205,13.2505643 L1.36507937,13.2505643 L1.36507937,6.25282167 C1.20361836,6.26787058 1.03481823,6.27539503 0.858678955,6.27539503 C0.682539683,6.27539503 0.513739546,6.27539503 0.352278546,6.27539503 L0.352278546,2.57336343 Z M7.41986687,3.72460497 C7.05291005,4.19112114 6.61990101,4.58239278 6.12083973,4.89841986 L11.0527394,4.89841986 C11.3169483,4.82317532 11.5554702,4.69149737 11.7683052,4.503386 C11.9811401,4.31527464 12.160949,4.05568096 12.3077317,3.72460497 L7.41986687,3.72460497 Z M4.99795187,10 L8.05837174,10 L8.05837174,8.1489842 L4.99795187,8.1489842 L4.99795187,10 Z M12.1315924,10 L15.1920123,10 L15.1920123,8.1489842 L12.1315924,8.1489842 L12.1315924,10 Z M36.7250384,10.4514673 L36.7250384,8.60045147 L37.5616999,8.60045147 C37.9873699,8.60045147 38.2002048,8.52520692 38.2002048,8.37471783 L38.2002048,8.10383747 L36.0645161,8.10383747 L36.0645161,10.3611738 L32.6738351,10.3611738 L32.6738351,8.10383747 L30.7142857,8.10383747 C30.406042,8.70579383 29.9620242,9.21369451 29.3822325,9.6275395 C28.8024407,10.0413845 28.1162314,10.3762227 27.3236047,10.6320542 L40.4019457,10.6320542 L40.4019457,15.6659142 L36.5488991,15.6659142 L36.5488991,13.0925508 L27.9400922,13.0925508 L27.9400922,15.6659142 L24.0870456,15.6659142 L24.0870456,11.2189616 C23.8081584,11.2490594 23.5256016,11.2716328 23.2393753,11.2866817 C22.953149,11.3017306 22.6632531,11.3092551 22.3696877,11.3092551 L22.3696877,8.73589165 C24.1457587,8.73589165 25.4741423,8.52520692 26.3548387,8.10383747 L23.0302099,8.10383747 L23.0302099,3.72460497 L27.7859703,3.72460497 L27.7859703,3.04740406 L22.7219662,3.04740406 L22.7219662,0.970654628 L27.7859703,0.970654628 L27.7859703,0.0225733634 L31.1766513,0.0225733634 L31.1766513,0.970654628 L32.6738351,0.970654628 L32.6738351,0.0225733634 L36.0645161,0.0225733634 L36.0645161,0.970654628 L40.952381,0.970654628 L40.952381,5.57562077 L36.0645161,5.57562077 L36.0645161,6.25282167 L41.6129032,6.25282167 L41.6129032,7.9006772 C41.6129032,8.3972912 41.5541901,8.81113619 41.436764,9.14221219 C41.3193378,9.47328819 41.1065028,9.73288187 40.7982591,9.92099323 C40.4900154,10.1091046 40.0790237,10.2445448 39.5652842,10.3273138 C39.0515446,10.4100828 38.3983615,10.4514673 37.6057348,10.4514673 L36.7250384,10.4514673 Z M31.1766513,3.72460497 L32.6738351,3.72460497 L32.6738351,3.04740406 L31.1766513,3.04740406 L31.1766513,3.72460497 Z M36.0645161,3.72460497 L37.6497696,3.72460497 L37.6497696,3.04740406 L36.0645161,3.04740406 L36.0645161,3.72460497 Z M31.1766513,5.57562077 L31.1766513,6.0496614 L31.1766513,6.25282167 L32.6738351,6.25282167 L32.6738351,5.57562077 L31.1766513,5.57562077 Z M26.2007168,6.25282167 L27.7859703,6.25282167 L27.7859703,6.0496614 L27.7859703,5.57562077 L26.2007168,5.57562077 L26.2007168,6.25282167 Z M51.4326677,0 C51.4326677,0.85778781 51.3335893,1.67795335 51.1354327,2.46049661 C50.937276,3.24303988 50.6510497,3.96538751 50.2767537,4.6275395 C49.9024578,5.2896915 49.4474313,5.8841234 48.9116743,6.41083521 C48.3759174,6.93754703 47.7777778,7.35891648 47.1172555,7.67494357 L51.1684588,7.67494357 L51.1684588,9.66139955 L54.0527394,9.66139955 L54.0527394,13.1376975 C54.0527394,14.2814146 53.9243045,15.2445448 53.6674347,16.027088 C53.4105649,16.8096313 53.0289299,17.4379233 52.5225294,17.9119639 C52.016129,18.3860045 51.3996416,18.7321294 50.6730671,18.9503386 C49.9464926,19.1685478 49.1061615,19.2851768 48.1520737,19.3002257 L48.1520737,20 L44.4311316,20 L44.4311316,13.9503386 L48.1520737,13.9503386 L48.1520737,15.3498871 C48.9887353,15.3197893 49.5538488,15.1279157 49.8474142,14.7742664 C50.1409797,14.420617 50.2951016,13.8750941 50.3097798,13.1376975 L44.1669227,13.1376975 L44.1669227,9.66139955 L46.9190988,9.66139955 L46.9190988,7.76523702 C46.4787506,7.96087284 46.016385,8.11136193 45.532002,8.21670429 C45.047619,8.32204665 44.5485578,8.37471783 44.0348182,8.37471783 L44.0348182,4.1986456 C44.4751664,4.1986456 44.8824885,4.10458992 45.2567844,3.91647856 C45.6310804,3.72836719 45.9540024,3.4537246 46.2255504,3.09255079 C46.4970985,2.73137698 46.713603,2.29119639 46.875064,1.77200903 C47.036525,1.25282167 47.1172555,0.662151994 47.1172555,0 L51.4326677,0 Z M54.515105,0.135440181 L63.9825909,0.135440181 L63.9825909,3.61173815 L60.8781362,3.61173815 L60.8781362,4.6275395 L63.7844342,4.6275395 L63.7844342,14.96614 L61.1863799,14.96614 L61.1863799,7.6523702 L57.2672811,7.6523702 L57.2672811,14.96614 L54.6912442,14.96614 L54.6912442,4.6275395 L57.5755248,4.6275395 L57.5755248,3.61173815 L54.515105,3.61173815 L54.515105,0.135440181 Z M51.7849462,2.14446953 C51.9464072,2.65613243 52.1922683,3.08502634 52.5225294,3.43115124 C52.8527906,3.77727615 53.4068954,3.9503386 54.1848438,3.9503386 L54.1848438,8.37471783 C53.656426,8.37471783 53.1610343,8.30323552 52.6986687,8.16027088 C52.2363031,8.01730625 51.8179724,7.84048157 51.4436764,7.62979684 C51.0693804,7.41911211 50.750128,7.18961625 50.4859191,6.94130926 C50.2217102,6.69300226 50.0235535,6.4635064 49.8914491,6.25282167 C50.155658,5.99699022 50.3941799,5.68848758 50.6070148,5.32731377 C50.8198498,4.96613995 51.0069978,4.59367946 51.1684588,4.20993228 C51.3299198,3.8261851 51.4620242,3.44996238 51.5647721,3.08126411 C51.6675201,2.71256584 51.7409114,2.40030098 51.7849462,2.14446953 Z M57.7956989,8.37471783 L60.6799795,8.37471783 L60.6799795,12.3250564 C60.6799795,13.4687735 60.573562,14.5071482 60.3607271,15.4401806 C60.1478921,16.3732129 59.7992832,17.1670429 59.3149002,17.8216704 C58.8305172,18.476298 58.203021,18.9804364 57.4324117,19.3340858 C56.6618024,19.6877351 55.7187233,19.8645598 54.6031746,19.8645598 L54.6031746,16.1625282 C55.3958013,16.1625282 56.0086192,16.0534236 56.4416283,15.8352144 C56.8746373,15.6170053 57.1902202,15.3273138 57.3883769,14.96614 C57.5865335,14.6049661 57.7039597,14.1948834 57.7406554,13.7358916 C57.7773511,13.2768999 57.7956989,12.8066215 57.7956989,12.3250564 L57.7956989,8.37471783 Z M60.8781362,14.9887133 C60.922171,15.1241535 60.999232,15.2595937 61.109319,15.3950339 C61.219406,15.530474 61.3882062,15.6546275 61.6157194,15.7674944 C61.8432326,15.8803612 62.1478068,15.9744169 62.5294419,16.0496614 C62.911077,16.1249059 63.39546,16.1625282 63.9825909,16.1625282 L63.9825909,19.8645598 C62.9257552,19.8645598 62.0193719,19.7328819 61.2634409,19.469526 C60.5075098,19.2061701 59.9313876,18.8487585 59.5350742,18.3972912 C59.9901007,17.8856283 60.3130227,17.3062453 60.5038402,16.6591422 C60.6946578,16.0120391 60.8194231,15.4552295 60.8781362,14.9887133 Z M75.7619048,0 L79.2626728,0 L79.2626728,1.80586907 L81.2002048,1.80586907 L81.2002048,0 L84.7009729,0 L84.7009729,1.80586907 L85.7798259,1.80586907 L85.7798259,5.39503386 L82.3230927,5.39503386 L82.3230927,6.90744921 L85.4275474,6.90744921 L85.4275474,10.3837472 L82.3230927,10.3837472 L82.3230927,12.0316027 L86,12.0316027 L86,15.7336343 L82.3230927,15.7336343 L82.3230927,20 L78.1397849,20 L78.1397849,15.7336343 L74.4408602,15.7336343 L74.4408602,12.0316027 L78.1397849,12.0316027 L78.1397849,10.3837472 L75.0133129,10.3837472 L75.0133129,6.90744921 L78.1397849,6.90744921 L78.1397849,5.39503386 L74.6610343,5.39503386 L74.6610343,1.80586907 L75.7619048,1.80586907 L75.7619048,0 Z" fill="#000000" fill-rule="nonzero"></path>
                </g>
            </g>
        </g>
    </g>
</svg>