<?xml version="1.0" encoding="UTF-8"?>
<svg width="24px" height="24px" viewBox="0 0 24 24" version="1.1" xmlns="http://www.w3.org/2000/svg" xmlns:xlink="http://www.w3.org/1999/xlink">
    <title>toExamine</title>
    <g id="首页" stroke="none" stroke-width="1" fill="none" fill-rule="evenodd">
        <g id="商品详情页" transform="translate(-87.000000, -761.000000)">
            <g id="领样流程" transform="translate(16.000000, 715.000000)">
                <g id="toExamine" transform="translate(71.000000, 46.000000)">
                    <path d="M8,0 L16,0 C20.418278,-8.11624501e-16 24,3.581722 24,8 L24,16 C24,20.418278 20.418278,24 16,24 L8,24 C3.581722,24 5.41083001e-16,20.418278 0,16 L0,8 C-5.41083001e-16,3.581722 3.581722,8.11624501e-16 8,0 Z" id="矩形" fill="#EC6593"></path>
                    <path d="M11.7655644,6 L12.2344356,6 C13.3390051,6 14.2344356,6.8954305 14.2344356,8 C14.2344356,8.08293005 14.2292775,8.16577982 14.2189913,8.24806947 L13,18 L13,18 L11,18 L9.78100868,8.24806947 C9.6440037,7.15202959 10.4214551,6.15244923 11.517495,6.01544425 C11.5997846,6.00515804 11.6826344,6 11.7655644,6 Z" id="矩形" fill="#FFFFFF" opacity="0.849999964"></path>
                    <path d="M7.5,15 L16.5,15 C17.3284271,15 18,15.6715729 18,16.5 L18,18 L18,18 L6,18 L6,16.5 C6,15.6715729 6.67157288,15 7.5,15 Z" id="矩形" fill="#FFFFFF"></path>
                </g>
            </g>
        </g>
    </g>
</svg>