<?xml version="1.0" encoding="UTF-8"?>
<svg width="122px" height="115px" viewBox="0 0 122 115" version="1.1" xmlns="http://www.w3.org/2000/svg" xmlns:xlink="http://www.w3.org/1999/xlink">
    <title>已申请</title>
    <defs>
        <linearGradient x1="50%" y1="0%" x2="50%" y2="100%" id="linearGradient-1">
            <stop stop-color="#F8F0F3" offset="0%"></stop>
            <stop stop-color="#FCF2F5" offset="100%"></stop>
        </linearGradient>
        <linearGradient x1="100%" y1="27.21875%" x2="0%" y2="72.78125%" id="linearGradient-2">
            <stop stop-color="#FFECF2" offset="0%"></stop>
            <stop stop-color="#F9DDE6" offset="100%"></stop>
        </linearGradient>
        <linearGradient x1="50%" y1="100%" x2="50%" y2="0%" id="linearGradient-3">
            <stop stop-color="#FDF3F6" offset="0%"></stop>
            <stop stop-color="#FCF5F7" offset="100%"></stop>
        </linearGradient>
    </defs>
    <g id="首页" stroke="none" stroke-width="1" fill="none" fill-rule="evenodd">
        <g id="完成申样" transform="translate(-127.000000, -112.000000)">
            <g id="已申请" transform="translate(127.000000, 112.000000)">
                <ellipse id="椭圆形" fill="#F8F0F3" opacity="0.45" cx="56" cy="100" rx="56" ry="15"></ellipse>
                <path d="M23.0484343,34.2423068 L51.5242172,15.0211534 C54.2288307,13.1955393 57.7711693,13.1955393 60.4757828,15.0211534 L88.9515657,34.2423068 C93.3586239,37.2170712 96,42.1868013 96,47.5038856 L96,92 C96,96.418278 92.418278,100 88,100 L24,100 C19.581722,100 16,96.418278 16,92 L16,47.5038856 C16,42.1868013 18.6413761,37.2170712 23.0484343,34.2423068 Z" id="矩形" fill="#EABECD"></path>
                <path d="M28,20 C28,22.209139 29.790861,24 32,24 C34.209139,24 36,22.209139 36,20 L40,20 C40,22.209139 41.790861,24 44,24 C46.209139,24 48,22.209139 48,20 L52,20 C52,22.209139 53.790861,24 56,24 C58.209139,24 60,22.209139 60,20 L64,20 C64,22.209139 65.790861,24 68,24 C70.209139,24 72,22.209139 72,20 L76,20 C76,22.209139 77.790861,24 80,24 C82.209139,24 84,22.209139 84,20 L90,20 L90,92 L22,92 L22,20 L28,20 Z" id="形状结合" fill="url(#linearGradient-1)"></path>
                <g id="消息" transform="translate(96.000000, 0.000000)">
                    <path d="M13,0 C20.1797017,0 26,5.372583 26,12 C26,18.627417 20.1797017,24 13,24 C9.95922824,24 7.16229552,23.0363086 4.94808829,21.4217442 L1,23 L2.54690445,19.135472 C0.946478043,17.1410566 0,14.6725568 0,12 C0,5.372583 5.82029825,0 13,0 Z" id="形状结合" fill="#FBE9F0"></path>
                    <path d="M7.5,13.5 C8.32842712,13.5 9,12.8284271 9,12 C9,11.1715729 8.32842712,10.5 7.5,10.5 C6.67157288,10.5 6,11.1715729 6,12 C6,12.8284271 6.67157288,13.5 7.5,13.5 Z" id="椭圆形" fill="#ECC1CF"></path>
                    <path d="M13,13.5 C13.8284271,13.5 14.5,12.8284271 14.5,12 C14.5,11.1715729 13.8284271,10.5 13,10.5 C12.1715729,10.5 11.5,11.1715729 11.5,12 C11.5,12.8284271 12.1715729,13.5 13,13.5 Z" id="椭圆形" fill="#ECC1CF"></path>
                    <path d="M18.5,13.5 C19.3284271,13.5 20,12.8284271 20,12 C20,11.1715729 19.3284271,10.5 18.5,10.5 C17.6715729,10.5 17,11.1715729 17,12 C17,12.8284271 17.6715729,13.5 18.5,13.5 Z" id="椭圆形" fill="#ECC1CF"></path>
                </g>
                <path d="M16,46 L52.0779101,66.2938244 C54.5132184,67.6636854 57.4867816,67.6636854 59.9220899,66.2938244 L96,46 L96,46 L96,92 C96,96.418278 92.418278,100 88,100 L24,100 C19.581722,100 16,96.418278 16,92 L16,46 L16,46 Z" id="矩形" fill="url(#linearGradient-2)"></path>
                <path d="M58.2938494,65.6056946 L96,92 L96,92 C96,96.418278 92.418278,100 88,100 L24,100 C19.581722,100 16,96.418278 16,92 L16,92 L16,92 L53.7061506,65.6056946 C55.0834312,64.6415981 56.9165688,64.6415981 58.2938494,65.6056946 Z" id="矩形" fill="url(#linearGradient-3)"></path>
                <path d="M48.7573593,51.7573593 L48.7577186,51.7572237 L44.5147186,47.5147186 L48.7573593,43.2720779 L52.9997186,47.5142237 L62.8994949,37.6152237 L67.1421356,41.8578644 L53,56 L48.7573593,51.7573593 Z" id="形状结合" fill="#E1B9C7"></path>
            </g>
        </g>
    </g>
</svg>