<?xml version="1.0" encoding="UTF-8"?>
<svg width="70px" height="16px" viewBox="0 0 70 16" version="1.1" xmlns="http://www.w3.org/2000/svg" xmlns:xlink="http://www.w3.org/1999/xlink">
    <title>综合排序</title>
    <g id="首页" stroke="none" stroke-width="1" fill="none" fill-rule="evenodd">
        <g transform="translate(-16.000000, -336.000000)" id="综合排序">
            <g transform="translate(16.000000, 336.000000)">
                <path d="M0.19708216,8.37923251 C1.22429827,8.37923251 1.95887723,7.75319789 2.40081904,6.50112867 L1.37957512,6.59142212 C0.937633308,6.66365688 0.477774934,6.69977427 0,6.69977427 L0,3.72009029 C0.310553707,3.72009029 0.585274294,3.66290444 0.824161761,3.54853273 C1.06304923,3.43416102 1.26311748,3.23250564 1.42436652,2.94356659 C1.58561556,2.65462754 1.7050593,2.27238525 1.78269772,1.79683973 C1.86033615,1.32129421 1.89915536,0.72234763 1.89915536,0 L5.14205273,0 C5.14205273,0.686230248 5.10621961,1.3062453 5.03455337,1.86004515 C4.96288713,2.413845 4.86135995,2.91346877 4.72997185,3.35891648 L5.91246481,3.35891648 C5.91246481,4.39428141 5.81392373,5.31226486 5.61684157,6.11286682 C5.41975941,6.91346877 5.14802491,7.61474793 4.80163809,8.21670429 L5.91246481,8.09029345 L5.91246481,10.8893905 L0.19708216,11.3408578 L0.19708216,8.37923251 Z M6.27079601,4.0993228 L6.27079601,0.758465011 L9.45994369,0.758465011 L9.45994369,0 L12.989506,0 L12.989506,0.758465011 L16.1786537,0.758465011 L16.1786537,4.0993228 L13.4195035,4.0993228 L13.4195035,3.35891648 L9.02994625,3.35891648 L9.02994625,4.0993228 L6.27079601,4.0993228 Z M6.98745841,6.88036117 L7.00537497,4.56884876 L15.4261582,4.56884876 L15.4261582,6.88036117 L6.98745841,6.88036117 Z M6.27079601,11.1602709 C6.58134971,11.1602709 6.88593123,11.1482318 7.18454057,11.1241535 C7.4831499,11.1000752 7.75787049,11.0579383 8.00870233,10.9977427 C8.25953417,10.937547 8.48050508,10.8623025 8.67161505,10.772009 C8.86272502,10.6817156 9.01202969,10.5643341 9.11952905,10.4198646 L9.11952905,12.4604966 C9.07175156,12.7614748 8.92841908,13.0323552 8.68953161,13.2731377 L8.88661377,13.2731377 C9.19716748,13.2490594 9.38827745,13.158766 9.45994369,13.0022573 C9.53160993,12.8457487 9.56744305,12.5447705 9.56744305,12.0993228 L9.56744305,10.1309255 L6.30662913,10.1309255 L6.30662913,7.72911964 L16.1786537,7.72911964 L16.1786537,10.1309255 L12.9178398,10.1309255 L12.9178398,13.2009029 C12.9178398,13.586155 12.8879788,13.944319 12.828257,14.275395 C12.7685351,14.606471 12.6461053,14.8924003 12.4609675,15.1331828 C12.2758297,15.3739654 12.0100674,15.5635816 11.6636806,15.7020316 C11.3172937,15.8404816 10.8574354,15.9097065 10.2841055,15.9097065 L8.29536729,15.9097065 L8.29536729,13.5981941 C7.98481358,13.8028593 7.63842676,13.944319 7.25620681,14.0225734 C6.87398686,14.1008277 6.54551659,14.1399549 6.27079601,14.1399549 L6.27079601,11.1602709 Z M16.2682365,14.1399549 C15.9935159,14.1399549 15.6978927,14.1128668 15.3813668,14.0586907 C15.0648409,14.0045147 14.7692176,13.9142212 14.4944971,13.7878104 C14.2197765,13.6613995 13.980889,13.489842 13.7778347,13.2731377 C13.5747803,13.0564334 13.4493644,12.785553 13.4015869,12.4604966 L13.4015869,10.4198646 C13.4613088,10.5643341 13.5867247,10.6817156 13.7778347,10.772009 C13.9689446,10.8623025 14.1958877,10.937547 14.4586639,10.9977427 C14.7214402,11.0579383 15.0110912,11.1000752 15.3276171,11.1241535 C15.644143,11.1482318 15.9576828,11.1602709 16.2682365,11.1602709 L16.2682365,14.1399549 Z M0,16 L0,12.6410835 L5.91246481,11.9548533 L5.91246481,15.1151242 L0,16 Z" id="形状" fill="#000000" fill-rule="nonzero"></path>
                <path d="M28.057333,1.22799097 C28.1289992,1.46877351 28.314137,1.73965388 28.6127464,2.04063205 C28.9113557,2.34161023 29.3174644,2.62151994 29.8310724,2.88036117 C30.3446805,3.13920241 30.9657879,3.35891648 31.6943947,3.53950339 C32.4230015,3.72009029 33.2471632,3.81038375 34.16688,3.81038375 L34.16688,7.16930023 C33.3068851,7.16930023 32.536473,7.13318284 31.8556437,7.06094808 L31.8556437,8.18058691 L20.2457128,8.18058691 L20.2457128,6.91647856 C19.4693286,7.08502634 18.6989165,7.16930023 17.9344766,7.16930023 L17.9344766,4.00902935 C18.9139152,4.00902935 19.7918266,3.87659895 20.5682109,3.61173815 C21.3445952,3.34687735 22.0015357,3.01580135 22.5390325,2.61851016 C23.0765293,2.22121896 23.4886102,1.78781038 23.7752751,1.31828442 C24.0619401,0.848758465 24.2052726,0.409330324 24.2052726,0 L27.896084,0 C27.896084,0.529721595 27.7945568,1.05342363 27.5915024,1.57110609 C27.3884481,2.08878856 27.1047692,2.58841234 26.7404658,3.06997743 C26.3761624,3.55154251 25.9431789,4.00300978 25.4415152,4.42437923 C24.9398515,4.84574868 24.3904104,5.23100075 23.7931917,5.58013544 L27.7527515,5.58013544 C27.2391434,5.19488337 26.7553963,4.72535741 26.3015101,4.17155756 C26.6837301,3.82242287 27.0420613,3.40406321 27.3765037,2.91647856 C27.7109462,2.42889391 27.9378893,1.86606471 28.057333,1.22799097 Z M32.5902227,9.02934537 L32.5902227,15.9097065 L19.5111339,15.9097065 L19.5111339,9.02934537 L32.5902227,9.02934537 Z M29.2756591,11.6297968 L22.8256975,11.6297968 L22.8256975,13.2911964 L29.2756591,13.2911964 L29.2756591,11.6297968 Z" id="形状结合" fill="#000000" fill-rule="nonzero"></path>
                <path d="M37.1947786,0 L40.4197594,0 L40.4197594,2.41986456 L41.494753,2.41986456 L41.494753,5.39954853 L40.4197594,5.39954853 L40.4197594,7.00677201 L41.4051702,6.89841986 L41.4051702,9.89616253 L40.4197594,10.0225734 L40.4197594,12.0812641 C40.4197594,12.5989466 40.3958707,13.0865312 40.3480932,13.5440181 C40.3003157,14.0015049 40.1748998,14.4048157 39.9718454,14.7539503 C39.7687911,15.103085 39.4552513,15.379985 39.031226,15.5846501 C38.6072008,15.7893153 38.0249126,15.8916479 37.2843614,15.8916479 L36.1556181,15.8916479 L36.1556181,13.1106095 L36.4601996,13.1106095 C36.7826977,13.1106095 36.9857521,13.0173062 37.0693627,12.8306998 C37.1529733,12.6440933 37.1947786,12.2738901 37.1947786,11.7200903 L37.1947786,10.4740406 L35.8689532,10.6546275 L35.8689532,7.49435666 L37.1947786,7.34988713 L37.1947786,5.39954853 L35.9406194,5.39954853 L35.9406194,2.41986456 L37.1947786,2.41986456 L37.1947786,0 Z M47.3355516,0 L50.3813668,0 L50.3813668,1.44469526 L51.9938572,1.44469526 L51.9938572,4.31602709 L50.3813668,4.31602709 L50.3813668,5.99548533 L51.796775,5.99548533 L51.796775,8.86681716 L50.3813668,8.86681716 L50.3813668,10.7268623 L52.08344,10.7268623 L52.08344,13.8148984 L50.3813668,13.8148984 L50.3813668,16 L47.3355516,16 L47.3355516,0 Z" id="形状" fill="#000000" fill-rule="nonzero"></path>
                <path d="M53.7675966,12.3702032 C54.2334272,12.3702032 54.5648835,12.2076749 54.7619657,11.8826185 C54.9590479,11.5575621 55.0575889,11.0097818 55.0575889,10.2392777 L55.0575889,0.884875847 L61.2388021,0.884875847 L61.2388021,1.42108547e-14 L65.0191963,1.42108547e-14 L65.0191963,0.884875847 L70,0.884875847 L70,3.72009029 L58.3721525,3.72009029 L58.3721525,9.67945824 C58.3721525,10.1610233 58.3631943,10.6516178 58.3452777,11.1512415 C58.3273611,11.6508653 58.2736115,12.1294206 58.1840287,12.5869074 C58.0944459,13.0443943 57.9540995,13.4747931 57.7629895,13.8781038 C57.5718795,14.2814146 57.3061172,14.6335591 56.9657026,14.9345372 C56.6252879,15.2355154 56.1952905,15.4732882 55.6757103,15.6478555 C55.15613,15.8224229 54.5200921,15.9097065 53.7675966,15.9097065 L53.7675966,12.3702032 Z" id="形状" fill="#000000" fill-rule="nonzero"></path>
                <path d="M60.4146404,15.9097065 L60.4146404,13.2911964 L60.7729716,13.2911964 C61.1910247,13.2911964 61.5135227,13.2701279 61.7404658,13.227991 C61.9674089,13.185854 62.1316441,13.1075997 62.2331712,12.993228 C62.3346984,12.8788563 62.3944203,12.7193378 62.4123368,12.5146727 C62.4302534,12.3100075 62.4392117,12.0451467 62.4392117,11.7200903 L62.4392117,10.7810384 L58.7484003,10.7810384 L58.7484003,8.18058691 L61.3821346,8.18058691 L61.3821346,7.15124153 L64.1950346,7.15124153 L64.1950346,8.18058691 L64.9833632,8.18058691 C65.1625288,8.02407825 65.3148196,7.82242287 65.4402355,7.57562077 C65.5656514,7.32881866 65.6403037,7.01881114 65.6641925,6.64559819 L59.3038137,6.64559819 L59.3038137,4.22573363 L68.9787561,4.22573363 L68.9787561,5.88713318 C68.9787561,6.30850263 68.9309786,6.71181339 68.8354236,7.09706546 C68.7398686,7.48231753 68.5845918,7.84349135 68.369593,8.18058691 L69.5341694,8.18058691 L69.5341694,12.0993228 L66.7750192,12.0993228 L66.7750192,10.7810384 L65.7537753,10.7810384 L65.7537753,11.7200903 C65.7537753,12.2979684 65.7239143,12.8397291 65.6641925,13.3453725 C65.6044706,13.8510158 65.4641242,14.2934537 65.2431533,14.6726862 C65.0221824,15.0519187 64.6996843,15.3528969 64.2756591,15.5756208 C63.8516338,15.7983446 63.2693456,15.9097065 62.5287945,15.9097065 L60.4146404,15.9097065 Z" id="路径" fill="#FF0057"></path>
                <polygon id="路径" fill="#FF0057" points="43.4655746 0 46.5113898 0 46.5113898 16 43.4655746 16 43.4655746 13.8148984 41.656002 13.8148984 41.656002 10.7268623 43.4655746 10.7268623 43.4655746 8.86681716 42.0322498 8.86681716 42.0322498 5.99548533 43.4655746 5.99548533 43.4655746 4.31602709 41.8530842 4.31602709 41.8530842 1.44469526 43.4655746 1.44469526"></polygon>
            </g>
        </g>
    </g>
</svg>